{"title":"Night of the Living Dead (1968) - In Colour - DivX  [akhiugo]","uid":4565120,"size":962359470,"categoryP":"video","categoryS":"movies","magnet":"?xt=urn:btih:40949948bb77d1a523d4f7472abb8db650d0f1c9&amp;dn=Night+of+the+Living+Dead+%281968%29+-+In+Colour+-+DivX++%5Bakhiugo%5D&amp;tr=udp%3A%2F%2Ftracker.openbittorrent.com%3A80&amp;tr=udp%3A%2F%2Fopen.demonii.com%3A1337&amp;tr=udp%3A%2F%2Ftracker.coppersurfer.tk%3A6969&amp;tr=udp%3A%2F%2Fexodus.desync.com%3A6969","seeders":1,"leechers":0,"uploader":"akhiugo","files":-1,"time":1228843746,"description":"Chaos descends upon the world as the brains of the recently deceased become inexplicably reanimated, causing the dead to rise and feed on human flesh. Speculation rests on a radiation-covered NASA satellite returning from Venus, but it only remains a speculation. Anyone who dies during the crisis of causes unrelated to brain trauma will return as a flesh-eating zombie, including anyone who has been bitten by a zombie. The only way to destroy the zombies is to destroy the brain. As the catastrophe unfolds, a young woman visiting her father's grave takes refuge in a nearby farmhouse, where she is met by a man who protects her and barricades them inside. They both later discover people hiding in the basement, and they each attempt to cope with the situation. Their only hope rests on getting some gasoline from a nearby pump into a truck that is running on empty, but this requires braving the hordes of ravenous walking corpses outside. When they finally put their plans into action, panic and personal tensions only add to the terror as they try to survive. \n &lt;a href=&quot;\nhttp://www.imdb.com/title/tt0063350/&quot; rel=&quot;nofollow&quot; target=&quot;_NEW&quot;&gt;\nhttp://www.imdb.com/title/tt0063350/&lt;/a&gt;\n\n\n\nFormat                           : AVI\nFormat/Info                      : Audio Video Interleave\nFile size                        : 918 MiB\nDuration                         : 1h 35mn\nOverall bit rate                 : 1 341 Kbps\nWriting application              : Lavf51.12.1\n\nVideo\nFormat                           : MPEG-4 Visual\nFormat profile                   : Simple@L1\nFormat settings, BVOP            : No\nFormat settings, QPel            : No\nFormat settings, GMC             : No warppoints\nFormat settings, Matrix          : Default\nCodec ID                         : DX50\nCodec ID/Hint                    : DivX 5\nDuration                         : 1h 35mn\nBit rate                         : 1 200 Kbps\nWidth                            : 720 pixels\nHeight                           : 576 pixels\nDisplay aspect ratio             : 5/4\nFrame rate                       : 25.000 fps\nStandard                         : PAL\nResolution                       : 24 bits\nColorimetry                      : 4:2:0\nScan type                        : Progressive\nBits/(Pixel*Frame)               : 0.116\nStream size                      : 821 MiB (89%)\nWriting library                  : Lavc51.40.4\n\nAudio\nFormat                           : MPEG Audio\nFormat version                   : Version 1\nFormat profile                   : Layer 3\nCodec ID                         : 55\nCodec ID/Hint                    : MP3\nDuration                         : 1h 35mn\nBit rate mode                    : Constant\nBit rate                         : 128 Kbps\nChannel(s)                       : 2 channels\nSampling rate                    : 48.0 KHz\nResolution                       : 16 bits\nStream size                      : 87.6 MiB (10%)\nAlignment                        : Aligned on interleaves\nInterleave, duration             : 24 ms (0.60 video frame)\nInterleave, preload duration     : 24 ms\n\n\n\n\nPlease help your fellow pirates out by seeding after download!","torrent":{"xt":"urn:btih:40949948bb77d1a523d4f7472abb8db650d0f1c9","amp;dn":"Night+of+the+Living+Dead+%281968%29+-+In+Colour+-+DivX++%5Bakhiugo%5D","amp;tr":["udp%3A%2F%2Ftracker.openbittorrent.com%3A80","udp%3A%2F%2Fopen.demonii.com%3A1337","udp%3A%2F%2Ftracker.coppersurfer.tk%3A6969","udp%3A%2F%2Fexodus.desync.com%3A6969"],"infoHash":"40949948bb77d1a523d4f7472abb8db650d0f1c9","infoHashBuffer":{"type":"Buffer","data":[64,148,153,72,187,119,209,165,35,212,247,71,42,187,141,182,80,208,241,201]},"announce":[],"urlList":[]}}